<?xml version="1.0" encoding="UTF-8"?>
<!DOCTYPE svg PUBLIC "-//W3C//DTD SVG 1.1//EN" "http://www.w3.org/Graphics/SVG/1.1/DTD/svg11.dtd">
<svg xmlns="http://www.w3.org/2000/svg" version="1.1" width="29px" height="49px" style="shape-rendering:geometricPrecision; text-rendering:geometricPrecision; image-rendering:optimizeQuality; fill-rule:evenodd; clip-rule:evenodd" xmlns:xlink="http://www.w3.org/1999/xlink">
<g><path style="opacity:1" fill="#333333" d="M 10.5,-0.5 C 12.8333,-0.5 15.1667,-0.5 17.5,-0.5C 18.3414,1.3792 18.6747,3.3792 18.5,5.5C 17.5,6.5 16.5,7.5 15.5,8.5C 14.1667,8.5 12.8333,8.5 11.5,8.5C 11.0679,7.29049 10.4013,6.29049 9.5,5.5C 9.32526,3.3792 9.65859,1.3792 10.5,-0.5 Z"/></g>
<g><path style="opacity:0.824" fill="#8badd4" d="M 18.5,5.5 C 19.2623,7.26242 20.5956,8.26242 22.5,8.5C 21.5,9.5 20.5,10.5 19.5,11.5C 19.3059,9.08824 17.9726,8.08824 15.5,8.5C 16.5,7.5 17.5,6.5 18.5,5.5 Z"/></g>
<g><path style="opacity:0.863" fill="#8cb0dc" d="M 9.5,5.5 C 10.4013,6.29049 11.0679,7.29049 11.5,8.5C 10.5,10.1667 9.16667,11.5 7.5,12.5C 7.5,11.8333 7.16667,11.5 6.5,11.5C 8.38499,9.94678 9.38499,7.94678 9.5,5.5 Z"/></g>
<g><path style="opacity:1" fill="#1a6fc2" d="M 22.5,8.5 C 23.8333,8.5 25.1667,8.5 26.5,8.5C 27.2653,11.0961 27.5987,13.7628 27.5,16.5C 24.7628,16.5987 22.0961,16.2653 19.5,15.5C 19.5,14.1667 19.5,12.8333 19.5,11.5C 20.5,10.5 21.5,9.5 22.5,8.5 Z"/></g>
<g><path style="opacity:1" fill="#3a7dc8" d="M 6.5,11.5 C 7.16667,11.5 7.5,11.8333 7.5,12.5C 7.5,13.1667 7.5,13.8333 7.5,14.5C 6.5,14.8333 5.83333,15.5 5.5,16.5C 4.5,16.5 3.5,16.5 2.5,16.5C 2.5,14.8333 2.5,13.1667 2.5,11.5C 3.83333,11.5 5.16667,11.5 6.5,11.5 Z"/></g>
<g><path style="opacity:0.973" fill="#7aa3d9" d="M 26.5,8.5 C 27.1667,8.83333 27.8333,9.16667 28.5,9.5C 28.5,11.8333 28.5,14.1667 28.5,16.5C 28.1667,16.5 27.8333,16.5 27.5,16.5C 27.5987,13.7628 27.2653,11.0961 26.5,8.5 Z"/></g>
<g><path style="opacity:0.839" fill="#87acd8" d="M 7.5,14.5 C 9.16667,16.5 10.8333,18.5 12.5,20.5C 12.1667,21.5 11.5,22.1667 10.5,22.5C 9.58062,19.9108 7.91395,17.9108 5.5,16.5C 5.83333,15.5 6.5,14.8333 7.5,14.5 Z"/></g>
<g><path style="opacity:0.976" fill="#79a3d9" d="M 19.5,15.5 C 22.0961,16.2653 24.7628,16.5987 27.5,16.5C 26.5514,17.1524 25.3847,17.4857 24,17.5C 21.9919,17.6932 20.4919,17.0265 19.5,15.5 Z"/></g>
<g><path style="opacity:1" fill="#303030" d="M 12.5,20.5 C 16.5,19.8333 18.1667,21.5 17.5,25.5C 16.5,25.8333 15.8333,26.5 15.5,27.5C 11.5,28.1667 9.83333,26.5 10.5,22.5C 11.5,22.1667 12.1667,21.5 12.5,20.5 Z"/></g>
<g><path style="opacity:0.365" fill="#98b8de" d="M 17.5,25.5 C 18.7536,28.0934 20.4202,30.4268 22.5,32.5C 22.1667,33.1667 21.8333,33.8333 21.5,34.5C 19.5293,32.1918 17.5293,29.8585 15.5,27.5C 15.8333,26.5 16.5,25.8333 17.5,25.5 Z"/></g>
<g><path style="opacity:1" fill="#2874c4" d="M 6.5,29.5 C 6.42702,31.0269 7.09368,32.0269 8.5,32.5C 8.5,33.5 8.5,34.5 8.5,35.5C 7.5,36.5 6.5,37.5 5.5,38.5C 4.5,38.5 3.5,38.5 2.5,38.5C 2.02694,37.0937 1.02694,36.427 -0.5,36.5C -0.5,34.5 -0.5,32.5 -0.5,30.5C 1.71702,29.6314 4.05035,29.298 6.5,29.5 Z"/></g>
<g><path style="opacity:0.502" fill="#a1c2e6" d="M 6.5,29.5 C 7.90632,29.9731 8.57298,30.9731 8.5,32.5C 7.09368,32.0269 6.42702,31.0269 6.5,29.5 Z"/></g>
<g><path style="opacity:1" fill="#3078c6" d="M 22.5,32.5 C 23.8333,32.5 25.1667,32.5 26.5,32.5C 26.5,33.8333 26.5,35.1667 26.5,36.5C 24.7085,36.634 23.0418,36.3007 21.5,35.5C 21.5,35.1667 21.5,34.8333 21.5,34.5C 21.8333,33.8333 22.1667,33.1667 22.5,32.5 Z"/></g>
<g><path style="opacity:0.502" fill="#a1c2e6" d="M -0.5,37.5 C -0.5,37.1667 -0.5,36.8333 -0.5,36.5C 1.02694,36.427 2.02694,37.0937 2.5,38.5C 1.39105,38.4431 0.391047,38.1098 -0.5,37.5 Z"/></g>
<g><path style="opacity:0.329" fill="#97b8dd" d="M 8.5,35.5 C 8.83333,37.8333 10.1667,39.1667 12.5,39.5C 11.7095,40.4013 10.7095,41.0679 9.5,41.5C 8.73769,39.7376 7.40435,38.7376 5.5,38.5C 6.5,37.5 7.5,36.5 8.5,35.5 Z"/></g>
<g><path style="opacity:0.812" fill="#81aadb" d="M 21.5,35.5 C 23.0418,36.3007 24.7085,36.634 26.5,36.5C 23.5962,38.0551 20.9295,40.0551 18.5,42.5C 18.1667,41.8333 17.8333,41.1667 17.5,40.5C 19.5869,39.4154 20.9202,37.7488 21.5,35.5 Z"/></g>
<g><path style="opacity:1" fill="#383939" d="M 12.5,39.5 C 14.4147,39.2155 16.0813,39.5489 17.5,40.5C 17.8333,41.1667 18.1667,41.8333 18.5,42.5C 18.6747,44.6208 18.3414,46.6208 17.5,48.5C 15.1667,48.5 12.8333,48.5 10.5,48.5C 9.63137,46.283 9.29803,43.9496 9.5,41.5C 10.7095,41.0679 11.7095,40.4013 12.5,39.5 Z"/></g>
</svg>
